<svg width="17" height="20" viewBox="0 0 17 20" fill="none" xmlns="http://www.w3.org/2000/svg">
<path d="M2.96228 0H14.0368C14.8532 0 15.5944 0.334968 16.1305 0.875724C16.6666 1.41646 17 2.16298 17 2.98444V17.0094C17 17.6075 16.8337 18.1658 16.5296 18.638C16.2271 19.1086 15.7884 19.489 15.2444 19.733C14.7004 19.9771 14.1271 20.0521 13.5775 19.9651C13.0263 19.8782 12.5029 19.6302 12.0602 19.2298L9.85887 17.2415C9.47163 16.8913 8.98621 16.7167 8.5 16.7167C8.01379 16.7167 7.52835 16.8921 7.14113 17.2415L4.93977 19.2298C4.49632 19.6301 3.97289 19.8782 3.42252 19.9651C2.87296 20.0521 2.29883 19.9771 1.75559 19.733C1.21157 19.489 0.773649 19.1086 0.470376 18.638C0.166293 18.1658 0 17.6075 0 17.0094V2.98444C0 2.16217 0.332586 1.41564 0.869496 0.875724C1.40639 0.335785 2.1476 0 2.96321 0H2.96228Z" fill="black"/>
</svg>
