<svg width="17" height="20" viewBox="0 0 17 20" fill="none" xmlns="http://www.w3.org/2000/svg">
<path d="M2.96228 0H14.0368C14.8532 0 15.5944 0.334968 16.1305 0.875724C16.6666 1.41646 17 2.16298 17 2.98444V17.0094C17 17.6075 16.8337 18.1658 16.5296 18.638C16.2271 19.1086 15.7884 19.489 15.2444 19.733C14.7004 19.9771 14.1271 20.0521 13.5775 19.9651C13.0263 19.8782 12.5029 19.6302 12.0602 19.2298L9.85887 17.2415C9.47163 16.8913 8.98621 16.7167 8.5 16.7167C8.01379 16.7167 7.52835 16.8921 7.14113 17.2415L4.93977 19.2298C4.49632 19.6301 3.97289 19.8782 3.42252 19.9651C2.87296 20.0521 2.29883 19.9771 1.75559 19.733C1.21157 19.489 0.773649 19.1086 0.470376 18.638C0.166293 18.1658 0 17.6075 0 17.0094V2.98444C0 2.16217 0.332586 1.41564 0.869496 0.875724C1.40639 0.335785 2.1476 0 2.96321 0H2.96228ZM14.0368 0.937936H2.96228C2.40242 0.937936 1.89403 1.16843 1.5266 1.53849C1.15838 1.90936 0.930313 2.42139 0.930313 2.98446V17.0094C0.930313 17.4265 1.04276 17.8102 1.24865 18.1292C1.45532 18.4498 1.75703 18.7114 2.13398 18.8805C2.51092 19.0504 2.90606 19.1022 3.28061 19.0432C3.65518 18.9842 4.0139 18.8127 4.32194 18.5351L6.5233 16.5468C7.08871 16.0356 7.79505 15.7796 8.50063 15.7796C9.20541 15.7796 9.91176 16.0348 10.478 16.5468L12.6793 18.5351C12.9874 18.8127 13.3461 18.9841 13.7206 19.0432C14.096 19.1022 14.4904 19.0504 14.8673 18.8805C15.2434 18.7114 15.5459 18.4506 15.7526 18.1292C15.9585 17.8102 16.0709 17.4265 16.0709 17.0094V2.98446C16.0709 2.42059 15.8421 1.90856 15.4747 1.53849C15.1064 1.16763 14.598 0.937936 14.039 0.937936H14.0368Z" fill="black"/>
</svg>
