<svg width="32" height="32" viewBox="0 0 32 32" fill="none" xmlns="http://www.w3.org/2000/svg">
<path d="M9.87621 23.5983L16 17.4742L22.1237 23.5983L23.5983 22.1237L17.4741 16L23.5983 9.87624L22.1237 8.40166L16 14.5258L9.87621 8.40166L8.40163 9.87624L14.5258 16L8.40163 22.1237L9.87621 23.5983ZM16.0029 31.8333C13.8243 31.8333 11.7733 31.4178 9.84996 30.5867C7.92663 29.7555 6.2476 28.623 4.81288 27.1892C3.37843 25.755 2.24538 24.0767 1.41371 22.1542C0.58232 20.2317 0.166626 18.1812 0.166626 16.0029C0.166626 13.8129 0.582182 11.7544 1.41329 9.82749C2.2444 7.90055 3.3769 6.22443 4.81079 4.79916C6.24496 3.37388 7.92329 2.24541 9.84579 1.41374C11.7683 0.582351 13.8187 0.166656 15.997 0.166656C18.187 0.166656 20.2455 0.582211 22.1725 1.41332C24.0994 2.24443 25.7755 3.37235 27.2008 4.79707C28.6261 6.2218 29.7545 7.89721 30.5862 9.82332C31.4176 11.7494 31.8333 13.8074 31.8333 15.9971C31.8333 18.1757 31.4177 20.2267 30.5866 22.15C29.7555 24.0733 28.6276 25.7523 27.2029 27.1871C25.7782 28.6215 24.1027 29.7546 22.1766 30.5862C20.2505 31.4176 18.1926 31.8333 16.0029 31.8333ZM16 29.7392C19.8275 29.7392 23.0743 28.4033 25.7404 25.7317C28.4062 23.06 29.7391 19.8161 29.7391 16C29.7391 12.1725 28.4062 8.92568 25.7404 6.25957C23.0743 3.59374 19.8275 2.26082 16 2.26082C12.1838 2.26082 8.93996 3.59374 6.26829 6.25957C3.59663 8.92568 2.26079 12.1725 2.26079 16C2.26079 19.8161 3.59663 23.06 6.26829 25.7317C8.93996 28.4033 12.1838 29.7392 16 29.7392Z" fill="#373740"/>
</svg>
