<svg width="30" height="20" viewBox="0 0 30 20" fill="none" xmlns="http://www.w3.org/2000/svg">
<path d="M29.602 1.64885C29.3878 1.2519 29.0816 0.916024 28.7143 0.641215C28.1633 0.244268 27.5204 0 26.7857 0H3.21429C2.47959 0 1.83674 0.244268 1.28572 0.641215C0.918371 0.916024 0.612241 1.2519 0.397955 1.64885C0.122445 2.10686 0 2.62596 0 3.20611V16.7939C0 17.4046 0.183673 17.9542 0.459184 18.4428C0.704082 18.8397 1.0102 19.1451 1.37755 19.4199C1.89796 19.7863 2.54082 20 3.21429 20H26.7857C27.4592 20 28.102 19.7863 28.6224 19.4199C28.9898 19.1756 29.2959 18.8397 29.5408 18.4428C29.8469 17.9542 30 17.4046 30 16.7939V3.20611C30 2.65649 29.8469 2.1374 29.602 1.64885ZM3.21429 1.3435H26.7857C27.0918 1.3435 27.3674 1.40458 27.6122 1.52672L15.7959 10.687C15.5816 10.8702 15.3061 10.9618 15.0306 10.9618C14.7551 10.9618 14.4796 10.8702 14.2653 10.687L2.44898 1.52672C2.63265 1.40458 2.90816 1.3435 3.21429 1.3435ZM1.31632 16.8244V3.23664C1.31632 2.99236 1.37755 2.71756 1.46938 2.50382L10.3776 9.40459L1.46938 17.5573C1.37755 17.313 1.31632 17.0687 1.31632 16.8244ZM26.7857 18.687H3.21429C2.90816 18.687 2.63265 18.626 2.38775 18.5038L11.4184 10.1985L13.3776 11.7252C13.8367 12.0611 14.3878 12.2748 14.9694 12.2748C15.551 12.2748 16.102 12.0916 16.5612 11.7252L18.5204 10.1985L27.551 18.5038C27.3673 18.626 27.0918 18.687 26.7857 18.687ZM19.6224 9.37406L28.5306 2.47328C28.6225 2.68702 28.6837 2.9313 28.6837 3.20611V16.7939C28.6837 17.0382 28.6225 17.313 28.5306 17.5267L19.6224 9.37406Z" fill="black"/>
</svg>
