<svg width="28" height="33" viewBox="0 0 28 33" fill="none" xmlns="http://www.w3.org/2000/svg">
<path d="M21.56 7.41005C21.56 11.5025 18.1752 14.8201 14 14.8201C9.82472 14.8201 6.43994 11.5025 6.43994 7.41005C6.43994 3.31763 9.82472 0 14 0C18.1752 0 21.56 3.31763 21.56 7.41005Z" fill="#388A48"/>
<path d="M20.1608 16.8201H7.84014C5.65614 16.8201 3.69601 17.7533 2.29613 19.1254C0.896258 20.4975 0 22.5287 0 24.6142V31.2009C0 31.8048 0.504001 32.1889 1.12013 32.1889H26.8799C27.496 32.1889 28 31.8596 28 31.2009V24.6142C28 20.388 24.472 16.8201 20.1602 16.8201H20.1608Z" fill="#388A48"/>
</svg>
