<svg width="32" height="33" viewBox="0 0 32 33" fill="none" xmlns="http://www.w3.org/2000/svg">
<mask id="mask0_1721_354" style="mask-type:alpha" maskUnits="userSpaceOnUse" x="6" y="6" width="20" height="21">
<rect x="6" y="6.5" width="20" height="20" fill="#D9D9D9"/>
</mask>
<g mask="url(#mask0_1721_354)">
<path d="M21.8894 23.1475L16.9263 18.1842C16.5096 18.5004 16.0527 18.7453 15.5556 18.919C15.0585 19.0926 14.5456 19.1794 14.0167 19.1794C12.7169 19.1794 11.612 18.7244 10.7019 17.8146C9.79174 16.9047 9.33667 15.8003 9.33667 14.5012C9.33667 13.2024 9.7916 12.0975 10.7015 11.1867C11.6113 10.276 12.7158 9.82062 14.0148 9.82062C15.3137 9.82062 16.4185 10.2757 17.3294 11.1858C18.2401 12.096 18.6954 13.2009 18.6954 14.5006C18.6954 15.0455 18.606 15.5665 18.4271 16.0635C18.2481 16.5608 18.0058 17.0096 17.7002 17.4102L22.6633 22.3733L21.8894 23.1475ZM14.016 18.0962C15.0204 18.0962 15.8708 17.7479 16.5673 17.0512C17.264 16.3547 17.6123 15.5043 17.6123 14.5C17.6123 13.4957 17.264 12.6453 16.5673 11.9487C15.8708 11.2521 15.0204 10.9037 14.016 10.9037C13.0117 10.9037 12.1613 11.2521 11.4648 11.9487C10.7681 12.6453 10.4198 13.4957 10.4198 14.5C10.4198 15.5043 10.7681 16.3547 11.4648 17.0512C12.1613 17.7479 13.0117 18.0962 14.016 18.0962Z" fill="white"/>
</g>
</svg>
