<svg width="209" height="43" viewBox="0 0 209 43" fill="none" xmlns="http://www.w3.org/2000/svg">
<g>
<path d="M62.258 20.4289C60.0823 21.3299 58.2102 22.1022 55.7585 22.9756L55.3077 20.7277C56.1081 20.4519 56.959 20.2037 57.7824 19.9278V14.6551H55.9057V12.683H57.7824V8.08607H55.5055V6.11397H62.1292V8.08607H59.8523V12.683H61.8532V14.6551H59.8523V19.2521C60.625 18.9763 61.3794 18.6775 62.1292 18.3787L62.2534 20.4289H62.258ZM74.2082 19.1785L75.4823 20.2037C74.682 20.976 73.808 21.8034 73.0076 22.4516C73.9322 23.2515 75.0591 23.9272 76.1815 24.3501L74.9809 26.2257C71.8301 24.7776 69.6084 22.4516 68.4309 19.4038C68.0077 19.8543 67.5063 20.3048 67.0325 20.7047V23.5778C68.1319 23.4032 69.2312 23.1779 70.3582 22.9297L70.4088 24.7271C68.6609 25.2787 65.7078 25.8028 63.1089 26.2487L62.511 24.2766C63.3113 24.1754 64.1117 24.0789 64.912 23.9502V22.1758C63.8633 22.7734 62.7133 23.325 61.4622 23.8766L60.4641 22.0287C62.6398 21.2288 64.5395 20.2818 65.9654 19.1831H63.0675V14.3609H74.4934V19.1831H74.2174L74.2082 19.1785ZM61.9084 13.3588V11.4373H75.5329V13.3588H61.9084ZM62.7823 10.4351V5.58992H74.8292V10.4351H62.7823ZM64.8568 8.81239H66.2552V7.26322H64.8568V8.81239ZM65.1052 17.5282H72.4051V15.9791H65.1052V17.5282ZM68.0583 8.81239H69.4566V7.26322H68.0583V8.81239ZM70.4318 19.1785C70.7814 19.9049 71.2045 20.576 71.7335 21.2012C72.3821 20.6266 73.0812 19.9508 73.7068 19.1785H70.4318ZM71.2551 7.26322V8.81239H72.7547V7.26322H71.2551Z" fill="#388A48"/>
<path d="M89.6772 20.4519C87.6533 21.3759 85.3258 22.2999 82.6764 23.1273L82.0784 20.8059C82.9294 20.5806 83.8263 20.3324 84.7785 20.0336V12.8117H82.4556V10.6374H84.7785V4.84061H87.0278V10.6374H88.8033V10.2374H91.9265C91.8023 9.56169 91.5999 8.83997 91.4251 8.11365H89.5254V6.28865H94.4518V4.61536H96.8253V6.28865H101.724V8.11365H100.022C99.8243 8.83997 99.6725 9.51112 99.4471 10.2374H102.446V12.136H89.0241V12.8117H87.0232V19.2843C87.8741 18.9855 88.7711 18.6591 89.599 18.3097L89.6726 20.4565L89.6772 20.4519ZM102.63 22.5251C102.506 23.4491 102.455 24.272 102.156 24.9753C101.756 25.8993 100.73 26.0004 98.8308 26.0004C96.6551 25.9774 95.8041 25.6005 95.8041 24.1019V20.9805H94.6036C93.9274 24.2766 91.5033 25.7522 88.3801 26.4279L87.2807 24.4053C89.7784 23.9042 91.7057 23.1043 92.3037 20.9805H90.3028V13.0876H100.901V20.9805H98.15V23.4813C98.15 23.8812 98.3984 24.0053 99.1988 24.0329C100.022 24.0329 100.248 23.9088 100.349 23.5319C100.473 23.1319 100.523 22.6309 100.546 21.808L102.621 22.5343L102.63 22.5251ZM92.5797 16.1583H98.5548V14.9585H92.5797V16.1583ZM92.5797 19.105H98.5548V17.8546H92.5797V19.105ZM97.7268 8.11365H93.7756C93.9504 8.76182 94.1252 9.46056 94.277 10.2374H97.1289C97.3773 9.46515 97.5796 8.73883 97.7268 8.11365Z" fill="#388A48"/>
<path d="M115.551 10.858C113.628 11.8832 112 12.5819 109.875 13.4048L109.024 11.4327C110.597 10.9086 112.773 10.0352 114.498 9.20772L115.546 10.858H115.551ZM120.178 4.98771C120.004 5.41063 119.801 5.78758 119.603 6.13695H126.853L128.279 7.03796C127.777 8.1872 127.23 9.13877 126.577 10.3845L124.751 9.60766C124.902 9.40999 125.077 9.18474 125.201 8.90892C125.399 8.61012 125.601 8.28373 125.726 7.93436H122.478C123.651 10.334 125.827 11.1568 128.504 11.8832L127.428 13.8828C127.004 13.7587 126.577 13.584 126.176 13.4093V23.0032H123.003C124.801 23.679 126.926 24.0513 128.927 24.3042L127.727 26.3038C125.178 25.8809 122.276 24.9799 120.528 23.9318L121.655 23.0078H116.328L117.529 23.9318C115.505 25.1316 112.98 25.982 110.303 26.405L109.079 24.4329C111.103 24.2076 113.302 23.7847 115.105 23.0078H111.756V13.3404H115.68L114.879 12.1176C117.028 11.5154 119.502 10.2926 120.303 7.94356H118.555C117.957 8.76642 117.303 9.56629 116.48 10.3156L114.93 8.794C116.103 7.92057 117.253 6.19671 118.003 4.5464L120.178 4.9969V4.98771ZM109.553 7.63556V5.71403H115.004V7.63556H109.553ZM114.051 16.1308H123.9V15.0321H114.051V16.1308ZM114.051 18.728H123.9V17.6799H114.051V18.728ZM114.051 21.3759H123.9V20.2772H114.051V21.3759ZM121.452 10.0628C120.528 11.5614 119.079 12.6371 117.253 13.3358H125.951C124.153 12.6095 122.575 11.5384 121.452 10.0628Z" fill="#388A48"/>
<path d="M135.399 10.7615V8.71126H143.274V10.7615H135.399ZM147.547 13.106H149.897V7.60798H143.223V5.50717H152.124V14.0529L152.174 16.926C152.197 19.1234 152.372 21.546 152.947 22.8239C153.021 22.9986 153.099 23.2239 153.297 23.2469H153.347C153.499 23.2469 153.623 23.0952 153.725 22.7228C153.849 22.047 153.922 21.3483 154 20.4243L155.776 21.6241C155.578 22.971 155.353 24.0467 154.976 24.9202C154.7 25.6189 154.023 25.9958 153.352 25.9958C152.777 25.9958 151.875 25.5729 151.351 24.6213C150.353 22.9481 150.049 20.3232 149.953 17.4777C149.93 16.8801 149.902 16.0802 149.902 15.1562H147.529C147.377 20.1255 146.705 23.1273 144.479 26.4739L142.602 25.0259V26.0234H140.454V25.2971H138.255V26.3452H136.153V18.3281H142.602V24.9247C144.727 22.0516 145.229 19.0039 145.353 15.1562H143.076V13.106H145.376V8.28374H147.552V13.106H147.547ZM136.222 13.8828V11.9337H142.473V13.8828H136.222ZM136.222 17.0547V15.0826H142.473V17.0547H136.222ZM136.25 7.51145V5.51177H142.547V7.51145H136.25ZM138.251 23.4261H140.45V20.3048H138.251V23.4261Z" fill="#388A48"/>
<path d="M170.771 26.2992V18.8062H165.597V20.2312H163.172V8.91352H170.771V4.66592H173.297V8.91352H181.296V20.1071H178.821V18.8062H173.297V26.2992H170.771ZM165.597 16.7789H170.771V10.9086H165.597V16.7789ZM173.269 10.9086V16.7789H178.816V10.9086H173.269Z" fill="#388A48"/>
<path d="M192.896 14.1081C192.597 17.2294 191.995 20.1301 190.923 22.8515L188.697 21.854C189.796 19.5325 190.422 16.1583 190.619 13.7082L192.896 14.1081ZM205.619 20.5025C205.467 21.8999 205.118 23.7249 204.644 24.5478C204.143 25.2741 203.618 25.7982 199.57 25.7982C194.695 25.7982 194.069 25.2741 194.069 23.2744V10.0076H196.47V22.3229C196.47 23.2698 196.769 23.5457 199.644 23.5457C202.096 23.5457 202.344 23.4215 202.717 22.7688C203.016 22.2447 203.14 20.8197 203.241 19.6198L205.615 20.4933L205.619 20.5025ZM200.444 10.5592C198.821 9.03764 197.395 7.83783 195.596 6.73916L197.146 4.99231C198.697 5.94388 200.845 7.46548 202.197 8.6377L200.449 10.5592H200.444ZM206.742 21.454C205.693 18.8062 204.391 16.1078 202.767 13.7863L204.892 12.6371C206.42 14.9861 207.965 17.7075 208.991 20.2312L206.742 21.454Z" fill="#388A48"/>
<path d="M59.6269 31.5674H56.5588V33.4061H59.5349V34.491H56.5588V37.0469H59.6269V38.1318H55.4043V30.4871H59.6269V31.572V31.5674Z" fill="#388A48"/>
<path d="M60.9286 33.305H62.0464V33.7509C62.4374 33.3648 62.8743 33.1717 63.3619 33.1717C63.9231 33.1717 64.3601 33.3464 64.6728 33.7003C64.9442 33.9991 65.0776 34.491 65.0776 35.1714V38.1272H63.9599V35.4334C63.9599 34.9599 63.8955 34.6289 63.7621 34.4496C63.6333 34.2658 63.3987 34.1738 63.0583 34.1738C62.6903 34.1738 62.4282 34.2979 62.2718 34.5416C62.12 34.7806 62.0418 35.2035 62.0418 35.8058V38.1318H60.924V33.3096L60.9286 33.305Z" fill="#388A48"/>
<path d="M66.9405 33.305L68.1871 36.0126L69.429 33.305H70.6847L68.1779 38.4582L65.6894 33.305H66.9359H66.9405Z" fill="#388A48"/>
<path d="M71.2689 31.3007C71.2689 31.1077 71.3379 30.9376 71.4805 30.7951C71.6231 30.6526 71.7933 30.5836 71.9911 30.5836C72.1889 30.5836 72.3637 30.6526 72.5063 30.7951C72.6489 30.933 72.7178 31.1031 72.7178 31.3053C72.7178 31.5076 72.6489 31.6777 72.5063 31.8202C72.3683 31.9627 72.1981 32.0316 71.9957 32.0316C71.7933 32.0316 71.6231 31.9627 71.4805 31.8202C71.3379 31.6777 71.2689 31.503 71.2689 31.3007ZM72.5523 33.305V38.1272H71.4391V33.305H72.5523Z" fill="#388A48"/>
<path d="M73.9644 33.305H75.0775V33.7371C75.2845 33.5211 75.4639 33.374 75.6203 33.2958C75.7813 33.2131 75.9745 33.1717 76.1953 33.1717C76.4897 33.1717 76.7979 33.2682 77.1152 33.4613L76.6047 34.4818C76.3931 34.3301 76.1861 34.252 75.9837 34.252C75.3765 34.252 75.0729 34.7117 75.0729 35.6265V38.1272H73.9598V33.305H73.9644Z" fill="#388A48"/>
<path d="M77.4418 35.6816C77.4418 34.9829 77.6902 34.3945 78.1916 33.9026C78.6884 33.4153 79.3001 33.1717 80.0131 33.1717C80.7261 33.1717 81.3424 33.4199 81.8438 33.9118C82.3406 34.4037 82.589 35.0059 82.589 35.723C82.589 36.4401 82.3406 37.0515 81.8392 37.5388C81.3378 38.0261 80.7215 38.2651 79.9901 38.2651C79.2587 38.2651 78.6608 38.0169 78.1732 37.5204C77.6856 37.0331 77.4418 36.4171 77.4418 35.677V35.6816ZM78.5826 35.7046C78.5826 36.1873 78.7114 36.5688 78.9689 36.8493C79.2311 37.1343 79.5807 37.2768 80.0131 37.2768C80.4455 37.2768 80.7997 37.1343 81.0572 36.8539C81.3194 36.5734 81.4482 36.1965 81.4482 35.7276C81.4482 35.2587 81.3194 34.8864 81.0572 34.6059C80.7951 34.3209 80.4455 34.1784 80.0131 34.1784C79.5807 34.1784 79.2403 34.3209 78.9781 34.6059C78.716 34.891 78.5826 35.2541 78.5826 35.7046Z" fill="#388A48"/>
<path d="M83.7665 33.305H84.8843V33.7509C85.2752 33.3648 85.7122 33.1717 86.1998 33.1717C86.761 33.1717 87.1979 33.3464 87.5107 33.7003C87.7821 33.9991 87.9155 34.491 87.9155 35.1714V38.1272H86.7978V35.4334C86.7978 34.9599 86.7334 34.6289 86.6 34.4496C86.4712 34.2658 86.2366 34.1738 85.8962 34.1738C85.5282 34.1738 85.266 34.2979 85.1096 34.5416C84.9579 34.7806 84.8797 35.2035 84.8797 35.8058V38.1318H83.7619V33.3096L83.7665 33.305Z" fill="#388A48"/>
<path d="M89.3322 33.305H90.4454V33.7509C90.6616 33.5257 90.8456 33.374 90.9974 33.2958C91.1583 33.2131 91.3607 33.1717 91.6045 33.1717C92.1473 33.1717 92.5797 33.4107 92.8971 33.8842C93.2466 33.4107 93.7204 33.1717 94.3184 33.1717C95.4039 33.1717 95.9467 33.8291 95.9467 35.1484V38.1272H94.829V35.4472C94.829 34.9829 94.7738 34.6565 94.6588 34.468C94.5438 34.275 94.3552 34.1738 94.0884 34.1738C93.7802 34.1738 93.5594 34.2888 93.4168 34.5186C93.2742 34.7484 93.2053 35.1208 93.2053 35.6311V38.1226H92.0875V35.461C92.0875 34.6013 91.8391 34.1738 91.3423 34.1738C91.0296 34.1738 90.7996 34.2933 90.657 34.5232C90.5144 34.7576 90.4408 35.1254 90.4408 35.6311V38.1226H89.3276V33.3004L89.3322 33.305Z" fill="#388A48"/>
<path d="M101.752 35.9804H98.2926C98.3202 36.3758 98.449 36.693 98.679 36.9274C98.909 37.1573 99.1988 37.2722 99.5575 37.2722C99.8335 37.2722 100.064 37.2078 100.248 37.0745C100.427 36.9412 100.629 36.6976 100.855 36.3436L101.798 36.8677C101.65 37.1159 101.499 37.3274 101.338 37.502C101.177 37.6767 101.002 37.8238 100.818 37.9387C100.634 38.0537 100.431 38.1364 100.22 38.187C100.004 38.2375 99.7737 38.2651 99.5207 38.2651C98.7986 38.2651 98.2236 38.0353 97.7866 37.571C97.3496 37.1067 97.1335 36.4907 97.1335 35.7184C97.1335 34.9461 97.345 34.3393 97.7682 33.8658C98.196 33.4015 98.7572 33.1671 99.4609 33.1671C100.165 33.1671 100.73 33.3923 101.144 33.8474C101.554 34.298 101.761 34.9185 101.761 35.7138V35.9758L101.752 35.9804ZM100.606 35.0702C100.45 34.4772 100.077 34.1784 99.4839 34.1784C99.3505 34.1784 99.2218 34.2014 99.1022 34.2382C98.9826 34.2796 98.8768 34.3393 98.7756 34.4175C98.679 34.4956 98.5962 34.5876 98.5272 34.6979C98.4582 34.8082 98.403 34.9323 98.3708 35.0702H100.611H100.606Z" fill="#388A48"/>
<path d="M102.971 33.305H104.088V33.7509C104.479 33.3648 104.916 33.1717 105.404 33.1717C105.965 33.1717 106.402 33.3464 106.715 33.7003C106.986 33.9991 107.12 34.491 107.12 35.1714V38.1272H106.002V35.4334C106.002 34.9599 105.937 34.6289 105.804 34.4496C105.675 34.2658 105.441 34.1738 105.1 34.1738C104.732 34.1738 104.47 34.2979 104.314 34.5416C104.162 34.7806 104.084 35.2035 104.084 35.8058V38.1318H102.966V33.3096L102.971 33.305Z" fill="#388A48"/>
<path d="M109.682 34.3485V38.1318H108.569V34.3485H108.095V33.3096H108.569V31.5398H109.682V33.3096H110.546V34.3485H109.682Z" fill="#388A48"/>
<path d="M114.953 33.305H116.071V38.1272H114.953V37.6215C114.493 38.0491 114.001 38.2651 113.472 38.2651C112.805 38.2651 112.253 38.0261 111.816 37.5434C111.384 37.0515 111.167 36.4355 111.167 35.7C111.167 34.9645 111.384 34.3761 111.816 33.8934C112.248 33.4107 112.791 33.1717 113.44 33.1717C114.001 33.1717 114.507 33.4015 114.948 33.8658V33.305H114.953ZM112.308 35.7046C112.308 36.1689 112.432 36.5413 112.681 36.8355C112.934 37.1297 113.256 37.2768 113.642 37.2768C114.056 37.2768 114.387 37.1343 114.645 36.8493C114.898 36.5551 115.027 36.1827 115.027 35.7322C115.027 35.2817 114.898 34.9093 114.645 34.6151C114.392 34.3301 114.061 34.183 113.656 34.183C113.274 34.183 112.952 34.3301 112.695 34.6197C112.442 34.9139 112.313 35.2771 112.313 35.7092L112.308 35.7046Z" fill="#388A48"/>
<path d="M118.596 29.7653V38.1272H117.483V29.7653H118.596Z" fill="#388A48"/>
<path d="M124.507 30.4825V38.1272H123.352V30.4825H124.507Z" fill="#388A48"/>
<path d="M126.13 33.305H127.248V33.7509C127.639 33.3648 128.076 33.1717 128.564 33.1717C129.125 33.1717 129.562 33.3464 129.875 33.7003C130.146 33.9991 130.279 34.491 130.279 35.1714V38.1272H129.162V35.4334C129.162 34.9599 129.097 34.6289 128.964 34.4496C128.835 34.2658 128.601 34.1738 128.26 34.1738C127.892 34.1738 127.63 34.2979 127.474 34.5416C127.322 34.7806 127.244 35.2035 127.244 35.8058V38.1318H126.126V33.3096L126.13 33.305Z" fill="#388A48"/>
<path d="M132.851 34.3485V38.1318H131.733V34.3485H131.337V33.3096H131.733V31.4478C131.733 30.841 131.839 30.4135 132.05 30.1607C132.34 29.8113 132.763 29.6366 133.32 29.6366C133.518 29.6366 133.766 29.6964 134.07 29.8113V30.9514L133.955 30.8916C133.715 30.7675 133.518 30.7077 133.361 30.7077C133.164 30.7077 133.03 30.7767 132.961 30.9192C132.892 31.0571 132.855 31.3237 132.855 31.7236V33.3142H134.07V34.3531H132.855L132.851 34.3485Z" fill="#388A48"/>
<path d="M134.603 35.6816C134.603 34.9829 134.852 34.3945 135.353 33.9026C135.85 33.4153 136.462 33.1717 137.175 33.1717C137.887 33.1717 138.504 33.4199 139.005 33.9118C139.502 34.4037 139.75 35.0059 139.75 35.723C139.75 36.4401 139.502 37.0515 139.001 37.5388C138.499 38.0261 137.883 38.2651 137.152 38.2651C136.42 38.2651 135.822 38.0169 135.335 37.5204C134.847 37.0331 134.603 36.4171 134.603 35.677V35.6816ZM135.744 35.7046C135.744 36.1873 135.873 36.5688 136.13 36.8493C136.393 37.1343 136.742 37.2768 137.175 37.2768C137.607 37.2768 137.961 37.1343 138.219 36.8539C138.481 36.5734 138.61 36.1965 138.61 35.7276C138.61 35.2587 138.481 34.8864 138.219 34.6059C137.956 34.3209 137.607 34.1784 137.175 34.1784C136.742 34.1784 136.402 34.3209 136.14 34.6059C135.877 34.891 135.744 35.2541 135.744 35.7046Z" fill="#388A48"/>
<path d="M140.928 33.305H142.041V33.7371C142.248 33.5211 142.427 33.374 142.584 33.2958C142.745 33.2131 142.938 33.1717 143.159 33.1717C143.453 33.1717 143.761 33.2682 144.079 33.4613L143.568 34.4818C143.357 34.3301 143.15 34.252 142.947 34.252C142.34 34.252 142.036 34.7117 142.036 35.6265V38.1272H140.923V33.305H140.928Z" fill="#388A48"/>
<path d="M144.879 33.305H145.992V33.7509C146.208 33.5257 146.392 33.374 146.544 33.2958C146.705 33.2131 146.908 33.1717 147.151 33.1717C147.694 33.1717 148.127 33.4107 148.444 33.8842C148.794 33.4107 149.267 33.1717 149.865 33.1717C150.951 33.1717 151.494 33.8291 151.494 35.1484V38.1272H150.376V35.4472C150.376 34.9829 150.321 34.6565 150.206 34.468C150.091 34.275 149.902 34.1738 149.635 34.1738C149.327 34.1738 149.106 34.2888 148.964 34.5186C148.821 34.7484 148.752 35.1208 148.752 35.6311V38.1226H147.634V35.461C147.634 34.6013 147.386 34.1738 146.889 34.1738C146.576 34.1738 146.346 34.2933 146.204 34.5232C146.061 34.7576 145.988 35.1254 145.988 35.6311V38.1226H144.875V33.3004L144.879 33.305Z" fill="#388A48"/>
<path d="M156.461 33.305H157.579V38.1272H156.461V37.6215C156.001 38.0491 155.509 38.2651 154.98 38.2651C154.313 38.2651 153.761 38.0261 153.324 37.5434C152.892 37.0515 152.676 36.4355 152.676 35.7C152.676 34.9645 152.892 34.3761 153.324 33.8934C153.757 33.4107 154.299 33.1717 154.948 33.1717C155.509 33.1717 156.015 33.4015 156.457 33.8658V33.305H156.461ZM153.816 35.7046C153.816 36.1689 153.941 36.5413 154.189 36.8355C154.442 37.1297 154.764 37.2768 155.15 37.2768C155.564 37.2768 155.896 37.1343 156.153 36.8493C156.406 36.5551 156.535 36.1827 156.535 35.7322C156.535 35.2817 156.406 34.9093 156.153 34.6151C155.9 34.3301 155.569 34.183 155.164 34.183C154.782 34.183 154.46 34.3301 154.203 34.6197C153.95 34.9139 153.821 35.2771 153.821 35.7092L153.816 35.7046Z" fill="#388A48"/>
<path d="M160.137 34.3485V38.1318H159.023V34.3485H158.55V33.3096H159.023V31.5398H160.137V33.3096H161.001V34.3485H160.137Z" fill="#388A48"/>
<path d="M161.595 31.3007C161.595 31.1077 161.664 30.9376 161.806 30.7951C161.949 30.6526 162.119 30.5836 162.317 30.5836C162.515 30.5836 162.689 30.6526 162.832 30.7951C162.975 30.933 163.044 31.1031 163.044 31.3053C163.044 31.5076 162.975 31.6777 162.832 31.8202C162.694 31.9627 162.524 32.0316 162.321 32.0316C162.119 32.0316 161.949 31.9627 161.806 31.8202C161.664 31.6777 161.595 31.503 161.595 31.3007ZM162.878 33.305V38.1272H161.765V33.305H162.878Z" fill="#388A48"/>
<path d="M164.06 35.6816C164.06 34.9829 164.309 34.3945 164.81 33.9026C165.307 33.4153 165.919 33.1717 166.631 33.1717C167.344 33.1717 167.961 33.4199 168.462 33.9118C168.959 34.4037 169.207 35.0059 169.207 35.723C169.207 36.4401 168.959 37.0515 168.458 37.5388C167.956 38.0261 167.34 38.2651 166.608 38.2651C165.877 38.2651 165.279 38.0169 164.792 37.5204C164.304 37.0331 164.06 36.4171 164.06 35.677V35.6816ZM165.201 35.7046C165.201 36.1873 165.33 36.5688 165.587 36.8493C165.85 37.1343 166.199 37.2768 166.631 37.2768C167.064 37.2768 167.418 37.1343 167.676 36.8539C167.938 36.5734 168.067 36.1965 168.067 35.7276C168.067 35.2587 167.938 34.8864 167.676 34.6059C167.413 34.3209 167.064 34.1784 166.631 34.1784C166.199 34.1784 165.859 34.3209 165.597 34.6059C165.334 34.891 165.201 35.2541 165.201 35.7046Z" fill="#388A48"/>
<path d="M170.389 33.305H171.507V33.7509C171.898 33.3648 172.335 33.1717 172.823 33.1717C173.384 33.1717 173.821 33.3464 174.134 33.7003C174.405 33.9991 174.538 34.491 174.538 35.1714V38.1272H173.421V35.4334C173.421 34.9599 173.356 34.6289 173.223 34.4496C173.094 34.2658 172.86 34.1738 172.519 34.1738C172.151 34.1738 171.889 34.2979 171.733 34.5416C171.581 34.7806 171.503 35.2035 171.503 35.8058V38.1318H170.385V33.3096L170.389 33.305Z" fill="#388A48"/>
<path d="M184.948 30.8962V32.2615C184.281 31.7053 183.591 31.4248 182.878 31.4248C182.091 31.4248 181.429 31.7053 180.891 32.2707C180.348 32.8315 180.077 33.5165 180.077 34.3301C180.077 35.1438 180.348 35.8104 180.891 36.362C181.434 36.9136 182.096 37.1894 182.882 37.1894C183.287 37.1894 183.632 37.1251 183.917 36.9918C184.074 36.9274 184.239 36.8355 184.41 36.7251C184.58 36.6148 184.759 36.4769 184.948 36.3206V37.7135C184.285 38.0859 183.595 38.2743 182.869 38.2743C181.774 38.2743 180.84 37.8928 180.067 37.1297C179.299 36.362 178.913 35.4334 178.913 34.3485C178.913 33.374 179.235 32.5051 179.879 31.742C180.67 30.8089 181.696 30.34 182.956 30.34C183.641 30.34 184.308 30.5284 184.948 30.9008V30.8962Z" fill="#388A48"/>
<path d="M190.587 35.9804H187.128C187.156 36.3758 187.284 36.693 187.514 36.9274C187.744 37.1573 188.034 37.2722 188.393 37.2722C188.669 37.2722 188.899 37.2078 189.083 37.0745C189.262 36.9412 189.465 36.6976 189.69 36.3436L190.633 36.8677C190.486 37.1159 190.334 37.3274 190.173 37.502C190.012 37.6767 189.837 37.8238 189.653 37.9387C189.469 38.0537 189.267 38.1364 189.055 38.187C188.839 38.2375 188.609 38.2651 188.356 38.2651C187.634 38.2651 187.059 38.0353 186.622 37.571C186.185 37.1067 185.969 36.4907 185.969 35.7184C185.969 34.9461 186.181 34.3393 186.604 33.8658C187.031 33.4015 187.593 33.1671 188.296 33.1671C189 33.1671 189.566 33.3923 189.98 33.8474C190.389 34.298 190.596 34.9185 190.596 35.7138V35.9758L190.587 35.9804ZM189.442 35.0702C189.285 34.4772 188.913 34.1784 188.319 34.1784C188.186 34.1784 188.057 34.2014 187.938 34.2382C187.818 34.2796 187.712 34.3393 187.611 34.4175C187.514 34.4956 187.432 34.5876 187.363 34.6979C187.294 34.8082 187.238 34.9323 187.206 35.0702H189.446H189.442Z" fill="#388A48"/>
<path d="M191.806 33.305H192.924V33.7509C193.315 33.3648 193.752 33.1717 194.239 33.1717C194.801 33.1717 195.237 33.3464 195.55 33.7003C195.822 33.9991 195.955 34.491 195.955 35.1714V38.1272H194.837V35.4334C194.837 34.9599 194.773 34.6289 194.64 34.4496C194.511 34.2658 194.276 34.1738 193.936 34.1738C193.568 34.1738 193.306 34.2979 193.149 34.5416C192.997 34.7806 192.919 35.2035 192.919 35.8058V38.1318H191.801V33.3096L191.806 33.305Z" fill="#388A48"/>
<path d="M198.517 34.3485V38.1318H197.404V34.3485H196.93V33.3096H197.404V31.5398H198.517V33.3096H199.382V34.3485H198.517Z" fill="#388A48"/>
<path d="M204.626 35.9804H201.167C201.194 36.3758 201.323 36.693 201.553 36.9274C201.783 37.1573 202.073 37.2722 202.432 37.2722C202.708 37.2722 202.937 37.2078 203.121 37.0745C203.301 36.9412 203.503 36.6976 203.729 36.3436L204.672 36.8677C204.524 37.1159 204.373 37.3274 204.212 37.502C204.051 37.6767 203.876 37.8238 203.692 37.9387C203.508 38.0537 203.305 38.1364 203.094 38.187C202.878 38.2375 202.648 38.2651 202.395 38.2651C201.673 38.2651 201.098 38.0353 200.661 37.571C200.224 37.1067 200.007 36.4907 200.007 35.7184C200.007 34.9461 200.219 34.3393 200.642 33.8658C201.07 33.4015 201.631 33.1671 202.335 33.1671C203.039 33.1671 203.604 33.3923 204.018 33.8474C204.428 34.298 204.635 34.9185 204.635 35.7138V35.9758L204.626 35.9804ZM203.48 35.0702C203.324 34.4772 202.951 34.1784 202.358 34.1784C202.225 34.1784 202.096 34.2014 201.976 34.2382C201.857 34.275 201.751 34.3393 201.65 34.4175C201.553 34.4956 201.47 34.5876 201.401 34.6979C201.332 34.8082 201.277 34.9323 201.245 35.0702H203.485H203.48Z" fill="#388A48"/>
<path d="M205.845 33.305H206.958V33.7371C207.165 33.5211 207.344 33.374 207.5 33.2958C207.661 33.2131 207.855 33.1717 208.075 33.1717C208.37 33.1717 208.678 33.2682 208.995 33.4613L208.485 34.4818C208.273 34.3301 208.066 34.252 207.864 34.252C207.257 34.252 206.953 34.7117 206.953 35.6265V38.1272H205.84V33.305H205.845Z" fill="#388A48"/>
<path d="M33.6796 37.1481C30.1745 39.8741 25.9657 41.3129 21.5132 41.3129C10.5795 41.3129 1.68812 32.4224 1.68812 21.5C1.68812 10.5776 10.5795 1.68709 21.5132 1.68709C30.7817 1.68709 38.7209 7.97573 40.823 16.9812C40.9288 17.4363 41.3842 17.7167 41.835 17.611C42.2903 17.5052 42.5709 17.0501 42.4651 16.5996C40.1836 6.82649 31.5683 0 21.5132 0C9.65033 0 0 9.64443 0 21.5C0 33.3556 9.65033 43 21.5132 43C26.3429 43 30.9105 41.437 34.7145 38.4766C35.0825 38.1916 35.1469 37.6629 34.8617 37.2952C34.5765 36.9274 34.0475 36.8631 33.6796 37.1481Z" fill="#388A48"/>
<path d="M21.4626 17.5052C20.8646 17.5926 20.124 17.9787 19.8296 18.6453C19.6364 19.082 19.5168 19.8359 19.9952 20.1439C20.9796 20.7783 22.3503 19.0268 22.4423 18.1902C22.4699 17.9374 22.3917 17.7857 22.3227 17.7029C22.1663 17.519 21.8581 17.4501 21.4626 17.5052Z" fill="#388A48"/>
<path d="M30.5425 10.9959C30.5241 10.8029 30.3861 10.6236 30.1423 10.4765C29.6731 10.1915 28.8452 10.0444 28.1736 10.3156C27.6216 10.5362 27.4147 10.9408 27.1571 11.451C27.0099 11.736 26.8443 12.0624 26.5821 12.444C25.9289 13.391 25.2022 13.9288 24.7238 14.2782C24.2638 14.6137 23.9372 14.8574 24.0706 15.2297C24.1396 15.4182 24.3282 15.5653 24.6134 15.6573C24.8388 15.7308 25.1194 15.7722 25.4184 15.7676C25.9289 15.7584 26.5039 15.6251 26.9685 15.3125C27.5711 14.9126 27.7734 14.3655 27.9666 13.8369C28.1598 13.3082 28.3576 12.7658 28.9648 12.2417C29.3282 11.9291 29.6731 11.7636 29.9491 11.6349C30.2757 11.4786 30.5793 11.3315 30.5471 11.0005L30.5425 10.9959Z" fill="#388A48"/>
<path d="M12.8334 25.7246C12.8334 25.7246 12.8334 25.7246 12.8288 25.7246C12.1342 25.7384 11.7202 26.8509 11.6466 27.6324C11.6144 28.0047 11.5638 28.5104 11.9134 28.8551C12.1296 29.0666 12.4286 29.1585 12.7368 29.1539C13.1002 29.1493 13.4681 29.0114 13.7211 28.7862C14.4203 28.161 14.0891 27.0531 13.8177 26.5521C13.7027 26.3452 13.3624 25.7154 12.838 25.7246H12.8334Z" fill="#388A48"/>
<path d="M29.0752 28.8965C27.9896 28.5885 26.6373 28.207 25.3816 28.8551C22.7505 30.2112 25.5288 31.4984 27.2721 31.3789C28.2012 31.3145 29.0706 31.0847 29.9629 30.9514C29.8617 30.3629 29.8341 29.7607 29.8709 29.1539C29.6042 29.0574 29.3328 28.9701 29.0798 28.8965H29.0752Z" fill="#388A48"/>
<path d="M37.3548 17.0731C37.479 17.519 37.9435 17.7811 38.3943 17.6569C38.8451 17.5328 39.1027 17.0639 38.9785 16.618C36.8258 8.93191 30.0089 3.61782 22.0191 3.39257C12.0238 3.10296 3.65682 11.0097 3.37163 21.0035C3.23364 25.8441 4.99076 30.4503 8.32099 33.9716C11.6512 37.4928 16.1498 39.5063 20.9934 39.6442C21.1682 39.6488 21.343 39.6534 21.5177 39.6534C25.0366 39.6534 28.4404 38.6467 31.3889 36.7297C31.7798 36.4769 31.8902 35.9529 31.6373 35.5621C31.6281 35.5529 31.6189 35.5437 31.6143 35.5345C31.6143 35.5345 31.6189 35.5345 31.6235 35.5299C31.6143 35.5116 31.6097 35.4978 31.6005 35.484C31.1773 34.7025 30.3033 33.6314 29.3972 33.4061C27.8332 33.0154 28.261 34.9967 27.0375 35.1116C26.7109 35.1438 26.4073 34.9599 26.1037 34.8358C25.2344 34.4864 24.2224 34.6335 23.3807 35.0473C22.4837 35.4886 21.2004 36.6286 20.354 37.925C16.228 37.6353 12.4102 35.8425 9.55373 32.8177C7.46543 30.6112 6.0625 27.9312 5.43233 25.0397C6.27869 24.511 6.86746 21.4035 7.09285 20.7185C7.15725 20.5163 7.23545 20.3048 7.39644 20.1669C7.60803 19.9922 7.92541 19.9968 8.1738 20.1071C8.42219 20.2221 8.61998 20.4243 8.79477 20.6358C9.68253 21.6977 10.2161 22.994 11.2556 23.9318C11.4902 24.1433 11.7616 24.3501 12.079 24.3777C12.8748 24.4467 13.3025 23.394 13.1462 22.6079C12.9898 21.8218 12.5252 21.0863 12.5942 20.2864C12.6724 19.3624 13.4589 18.6453 14.3007 18.2545C15.1425 17.8638 16.0716 17.7075 16.9226 17.3398C17.7735 16.972 18.5877 16.3054 18.7395 15.3906C18.9097 14.3425 18.2013 13.1197 18.8499 12.2739C19.4984 11.4327 20.7864 11.7452 21.6741 11.4143C22.8011 10.9913 23.767 9.92485 24.1028 8.78021C24.1718 8.54576 24.2224 8.30212 24.296 8.06768C24.3558 7.8884 24.434 7.71371 24.549 7.56201C25.5472 6.26567 27.7642 9.45136 28.1506 7.11611C28.1874 6.88626 28.1966 6.6702 28.1874 6.46334C32.5894 8.39866 36.007 12.2095 37.3686 17.0685L37.3548 17.0731Z" fill="#388A48"/>
<path d="M42.1615 19.5187C38.7991 18.0569 34.8801 19.6015 33.4174 22.9618L31.6603 27.0026C30.1975 30.363 31.743 34.2796 35.1055 35.7414C38.4679 37.2032 42.3869 35.6587 43.8497 32.2983L45.6068 28.2575C47.0695 24.8972 45.524 20.9805 42.1615 19.5187ZM44.0612 27.5864L42.3041 31.6271C41.214 34.1325 38.2885 35.2863 35.7817 34.1968C33.2748 33.1073 32.1202 30.1837 33.2104 27.6783L34.9675 23.6376C35.9426 21.3943 38.3851 20.245 40.685 20.8059L40.2434 21.8264C40.179 21.9735 40.0364 22.0838 39.8755 22.093C38.9601 22.1298 38.0999 22.6768 37.7136 23.5732L37.3456 24.4237C36.9546 25.3201 37.1432 26.3176 37.7412 27.0118C37.847 27.1359 37.8607 27.3106 37.7964 27.4623L37.3732 28.4322C37.2076 28.8184 37.3134 29.2873 37.6676 29.5171C38.1183 29.8067 38.6979 29.6182 38.9049 29.1448L39.3465 28.1334C39.4109 27.9863 39.5535 27.876 39.7145 27.8668C40.6298 27.83 41.49 27.283 41.8764 26.3912L42.2443 25.5407C42.6353 24.6489 42.4467 23.6468 41.8488 22.9526C41.743 22.8285 41.7292 22.6538 41.7936 22.5021L42.2351 21.4816C44.213 22.778 45.0364 25.3523 44.0612 27.5956V27.5864ZM40.6896 24.8558L40.3216 25.7062C40.133 26.1383 39.5949 26.3176 39.1763 26.0464C38.8497 25.8349 38.7485 25.3982 38.9049 25.0443L39.2407 24.272C39.3971 23.9134 39.7835 23.6882 40.1606 23.7847C40.639 23.9042 40.8782 24.4191 40.6896 24.8558Z" fill="#388A48"/>
</g>
</svg>
